<?xml version="1.0" encoding="UTF-8" standalone="yes"?>
<!DOCTYPE svg PUBLIC "-//W3C//DTD SVG 1.1//EN" "http://www.w3.org/Graphics/SVG/1.1/DTD/svg11.dtd">

<svg width="172" height="170" viewBox="0 0 172 170" xmlns="http://www.w3.org/2000/svg" xmlns:xlink="http://www.w3.org/1999/xlink" version="1.1" baseProfile="full">
    <g transform="scale(1,-1) translate(0,-170)">
        <path d="M 9.538012 41.440000 L 4.040936 38.800000 L 1.000000 45.400000 L 13.514620 51.520000 L 31.526316 12.400000 L 53.280702 121.000000 L 60.883041 121.000000 L 36.204678 1.000000 L 28.602339 1.000000 Z M 72.228070 53.440000 L 64.859649 53.440000 Q 64.391813 46.600000 66.321637 41.320000 Q 68.251462 36.040000 72.052632 32.440000 Q 75.853801 28.840000 81.175439 26.920000 Q 86.497076 25.000000 92.812865 25.000000 Q 98.426901 25.000000 103.573099 26.620000 Q 108.719298 28.240000 112.578947 31.480000 Q 116.438596 34.720000 118.719298 39.460000 Q 121.000000 44.200000 121.000000 50.440000 Q 121.000000 58.720000 116.614035 64.300000 Q 112.228070 69.880000 104.157895 71.200000 L 104.157895 71.440000 Q 110.824561 73.120000 114.391813 78.160000 Q 117.959064 83.200000 117.959064 90.040000 Q 117.959064 95.680000 115.795322 99.700000 Q 113.631579 103.720000 110.064327 106.300000 Q 106.497076 108.880000 101.935673 110.140000 Q 97.374269 111.400000 92.578947 111.400000 Q 86.614035 111.400000 81.818713 109.300000 Q 77.023392 107.200000 73.690058 103.540000 Q 70.356725 99.880000 68.543860 94.840000 Q 66.730994 89.800000 66.730994 83.800000 L 74.099415 83.800000 Q 73.982456 88.480000 75.152047 92.380000 Q 76.321637 96.280000 78.719298 99.100000 Q 81.116959 101.920000 84.625731 103.480000 Q 88.134503 105.040000 92.695906 105.040000 Q 96.438596 105.040000 99.654971 104.140000 Q 102.871345 103.240000 105.327485 101.260000 Q 107.783626 99.280000 109.187135 96.340000 Q 110.590643 93.400000 110.590643 89.200000 Q 110.590643 85.240000 109.070175 82.360000 Q 107.549708 79.480000 105.152047 77.620000 Q 102.754386 75.760000 99.771930 74.860000 Q 96.789474 73.960000 93.982456 73.960000 L 87.783626 73.960000 L 87.783626 67.600000 L 93.982456 67.600000 Q 98.076023 67.600000 101.643275 66.520000 Q 105.210526 65.440000 107.900585 63.220000 Q 110.590643 61.000000 112.111111 57.700000 Q 113.631579 54.400000 113.631579 49.840000 Q 113.631579 45.400000 111.877193 41.920000 Q 110.122807 38.440000 107.198830 36.040000 Q 104.274854 33.640000 100.532164 32.440000 Q 96.789474 31.240000 92.695906 31.240000 Q 87.783626 31.240000 83.865497 32.860000 Q 79.947368 34.480000 77.315789 37.360000 Q 74.684211 40.240000 73.339181 44.320000 Q 71.994152 48.400000 72.228070 53.440000 Z" transform="scale(1.000000,1.000000) translate(25.000000,24.000000)" fill="#000000" opacity="1.000000"></path>
    </g>
</svg>